<?xml version="1.0" encoding="UTF-8" standalone="no"?>
<!DOCTYPE svg PUBLIC "-//W3C//DTD SVG 1.1//EN" "http://www.w3.org/Graphics/SVG/1.1/DTD/svg11.dtd">
<svg version="1.1" xmlns="http://www.w3.org/2000/svg" xmlns:xlink="http://www.w3.org/1999/xlink" preserveAspectRatio="xMidYMid meet" viewBox="0 0 150 150" width="256" height="256"><defs><path d="M100 30L45 30" id="bOS9vSgBF"></path><path d="M125 120L25 120" id="biY1bmhmU"></path><path d="M90 78.43L90 25L90 78.43Z" id="c8uMvPObJN"></path><path d="" id="c1hf5aDn1I"></path><path d="" id="bgTafz9dd"></path><path d="M45 125L45 25" id="bpX4nyR9z"></path><path d="M125 52.5L60 52.5" id="e3h0pMoCLX"></path><path d="" id="a1Lt42JW5"></path><path d="M97.11 97L62.5 97" id="a8a8HIckT"></path><path d="M125 97L90 97" id="gmuFbHisW"></path><path d="" id="bR9k36M6W"></path><path d="" id="l2BW2tFvc7"></path><path d="M125 30L85 30" id="fn90FRp25"></path><path d="M120 75L120 25" id="d8rmtjaow"></path><path d="M65 75L25 75" id="e4Cwn4f5Z1"></path><path d="" id="jakrqFJ7wb"></path><path d="M63.42 30L28.72 30" id="eCqkdUQS5"></path><path d="M30 55L30 25" id="b6c7ineUjq"></path><path d="M30 100L30 70" id="a3yFoko5CU"></path><path d="" id="c23WNeMANN"></path><path d="M95 75L65 75" id="e4Sq4ULUJw"></path><path d="M125 75L85 75" id="g6yzpiTxJ"></path><path d="M60 125L60 25" id="bwJdc5eTA"></path><path d="M90 125L90 75" id="h2bBkY8I2W"></path><path d="M65 25L66 25L66 35L65 35L65 25Z" id="aRpGN7932"></path><path d="M65 47.5L66 47.5L66 57.5L65 57.5L65 47.5Z" id="a6MCban5WT"></path><path d="M65 70L66 70L66 80L65 80L65 70Z" id="aQSoGeKPM"></path><path d="M95 115L96 115L96 125L95 125L95 115Z" id="a2uTjVPw4n"></path><path d="M85 35L95 35L95 36L85 36L85 35Z" id="aJkPTH63s"></path><path d="M65 115L66 115L66 125L65 125L65 115Z" id="aNscqN75g"></path><path d="M40 35L50 35L50 36L40 36L40 35Z" id="b3PNa87KGt"></path><path d="M35 70L36 70L36 80L35 80L35 70Z" id="e2d3jTScRi"></path><path d="M65 92L66 92L66 102L65 102L65 92Z" id="aj6aDXHN1"></path></defs><g><g><g><g><use xlink:href="#bOS9vSgBF" opacity="1" fill-opacity="0" stroke="#8a1a35" stroke-width="10" stroke-opacity="1"></use></g></g><g><g><use xlink:href="#biY1bmhmU" opacity="1" fill-opacity="0" stroke="#8a1a35" stroke-width="10" stroke-opacity="1"></use></g></g><g><g><use xlink:href="#c8uMvPObJN" opacity="1" fill-opacity="0" stroke="#8a1a35" stroke-width="10" stroke-opacity="1"></use></g></g><g><g><use xlink:href="#c1hf5aDn1I" opacity="1" fill-opacity="0" stroke="#8a1a35" stroke-width="10" stroke-opacity="1"></use></g></g><g><g><use xlink:href="#bgTafz9dd" opacity="1" fill-opacity="0" stroke="#8a1a35" stroke-width="10" stroke-opacity="1"></use></g></g><g><g><use xlink:href="#bpX4nyR9z" opacity="1" fill-opacity="0" stroke="#8a1a35" stroke-width="10" stroke-opacity="1"></use></g></g><g><g><use xlink:href="#e3h0pMoCLX" opacity="1" fill-opacity="0" stroke="#8a1a35" stroke-width="10" stroke-opacity="1"></use></g></g><g><g><use xlink:href="#a1Lt42JW5" opacity="1" fill-opacity="0" stroke="#8a1a35" stroke-width="10" stroke-opacity="1"></use></g></g><g><g><use xlink:href="#a8a8HIckT" opacity="1" fill-opacity="0" stroke="#8a1a35" stroke-width="10" stroke-opacity="1"></use></g></g><g><g><use xlink:href="#gmuFbHisW" opacity="1" fill-opacity="0" stroke="#cb1b45" stroke-width="10" stroke-opacity="1"></use></g></g><g><g><use xlink:href="#bR9k36M6W" opacity="1" fill-opacity="0" stroke="#8a1a35" stroke-width="1" stroke-opacity="1"></use></g></g><g><g><use xlink:href="#l2BW2tFvc7" opacity="1" fill-opacity="0" stroke="#8a1a35" stroke-width="10" stroke-opacity="1"></use></g></g><g><g><use xlink:href="#fn90FRp25" opacity="1" fill-opacity="0" stroke="#cb1b45" stroke-width="10" stroke-opacity="1"></use></g></g><g><g><use xlink:href="#d8rmtjaow" opacity="1" fill-opacity="0" stroke="#cb1b45" stroke-width="10" stroke-opacity="1"></use></g></g><g><g><use xlink:href="#e4Cwn4f5Z1" opacity="1" fill-opacity="0" stroke="#8a1a35" stroke-width="10" stroke-opacity="1"></use></g></g><g><g><use xlink:href="#jakrqFJ7wb" opacity="1" fill-opacity="0" stroke="#8a1a35" stroke-width="10" stroke-opacity="1"></use></g></g><g><g><use xlink:href="#eCqkdUQS5" opacity="1" fill-opacity="0" stroke="#cb1b45" stroke-width="10" stroke-opacity="1"></use></g></g><g><g><use xlink:href="#b6c7ineUjq" opacity="1" fill-opacity="0" stroke="#cb1b45" stroke-width="10" stroke-opacity="1"></use></g></g><g><g><use xlink:href="#a3yFoko5CU" opacity="1" fill-opacity="0" stroke="#cb1b45" stroke-width="10" stroke-opacity="1"></use></g></g><g><g><use xlink:href="#c23WNeMANN" opacity="1" fill-opacity="0" stroke="#8a1a35" stroke-width="1" stroke-opacity="1"></use></g></g><g><g><use xlink:href="#e4Sq4ULUJw" opacity="1" fill-opacity="0" stroke="#8a1a35" stroke-width="10" stroke-opacity="1"></use></g></g><g><g><use xlink:href="#g6yzpiTxJ" opacity="1" fill-opacity="0" stroke="#cb1b45" stroke-width="10" stroke-opacity="1"></use></g></g><g><g><use xlink:href="#bwJdc5eTA" opacity="1" fill-opacity="0" stroke="#cb1b45" stroke-width="10" stroke-opacity="1"></use></g></g><g><g><use xlink:href="#h2bBkY8I2W" opacity="1" fill-opacity="0" stroke="#cb1b45" stroke-width="10" stroke-opacity="1"></use></g></g><g><use xlink:href="#aRpGN7932" opacity="1" fill="#631227" fill-opacity="1"></use></g><g><use xlink:href="#a6MCban5WT" opacity="1" fill="#631227" fill-opacity="1"></use></g><g><use xlink:href="#aQSoGeKPM" opacity="1" fill="#631227" fill-opacity="1"></use></g><g><use xlink:href="#a2uTjVPw4n" opacity="1" fill="#631227" fill-opacity="1"></use></g><g><use xlink:href="#aJkPTH63s" opacity="1" fill="#631227" fill-opacity="1"></use></g><g><use xlink:href="#aNscqN75g" opacity="1" fill="#631227" fill-opacity="1"></use></g><g><use xlink:href="#b3PNa87KGt" opacity="1" fill="#631227" fill-opacity="1"></use></g><g><use xlink:href="#e2d3jTScRi" opacity="1" fill="#631227" fill-opacity="1"></use></g><g><use xlink:href="#aj6aDXHN1" opacity="1" fill="#631227" fill-opacity="1"></use></g></g></g></svg>