<?xml version="1.0" encoding="UTF-8" standalone="no"?>
<!DOCTYPE svg PUBLIC "-//W3C//DTD SVG 1.1//EN" "http://www.w3.org/Graphics/SVG/1.1/DTD/svg11.dtd">
<svg version="1.1" xmlns="http://www.w3.org/2000/svg" xmlns:xlink="http://www.w3.org/1999/xlink" preserveAspectRatio="xMidYMid meet" viewBox="0 0 100 100" width="512" height="512"><defs><path d="M75 5L20 5" id="b4uqgpF7xg"></path><path d="M100 95L0 95" id="a1CcEZcV0t"></path><path d="M65 53.43L65 0L65 53.43Z" id="b1vaBT3GBR"></path><path d="" id="aMyJ5yRVc"></path><path d="" id="iuQ4asU2X"></path><path d="M20 100L20 0" id="a5LpsmGaf7"></path><path d="M100 27.5L35 27.5" id="f5wT5PdExH"></path><path d="" id="b11WPRfQ5l"></path><path d="M72.11 72L37.5 72" id="b1N8n7Ql"></path><path d="M100 72L65 72" id="f15kvLOGn2"></path><path d="" id="c27Jw4iCu"></path><path d="" id="b1is63GHf"></path><path d="M100 5L60 5" id="a1hcLl1jBk"></path><path d="M95 50L95 0" id="bZDsbicwt"></path><path d="M40 50L0 50" id="b5xcSUe60H"></path><path d="" id="a1dRJUm8pa"></path><path d="M38.42 5L3.72 5" id="a716R0BPQ"></path><path d="M5 30L5 0" id="jwXiiHJd3"></path><path d="M5 75L5 45" id="e6ty1YIEC"></path><path d="" id="caWWAvXbW"></path><path d="M70 50L40 50" id="a5TJ3Omv1H"></path><path d="M100 50L60 50" id="c17M0NwWmA"></path><path d="M35 100L35 0" id="bWWy1SXiK"></path><path d="M65 100L65 50" id="b4QnnR1z7"></path><path d="M40 0L41 0L41 10L40 10L40 0Z" id="bkvmo5L7I"></path><path d="M40 22.5L41 22.5L41 32.5L40 32.5L40 22.5Z" id="a2KDVsAs9P"></path><path d="M40 45L41 45L41 55L40 55L40 45Z" id="a2rbrYKtI"></path><path d="M40 67L41 67L41 77L40 77L40 67Z" id="eze4Z4Icg"></path><path d="M40 90L41 90L41 100L40 100L40 90Z" id="a20skVp5Ex"></path><path d="M60 10L70 10L70 11L60 11L60 10Z" id="icc7qnWQf"></path><path d="M15 10L25 10L25 11L15 11L15 10Z" id="jt4Lz7LRY"></path><path d="M10 45L11 45L11 55L10 55L10 45Z" id="b1Z6Z0uuZx"></path><path d="M70 90L71 90L71 100L70 100L70 90Z" id="e493jqYmV2"></path></defs><g><g><g><g><use xlink:href="#b4uqgpF7xg" opacity="1" fill-opacity="0" stroke="#8a1a35" stroke-width="10" stroke-opacity="1"></use></g></g><g><g><use xlink:href="#a1CcEZcV0t" opacity="1" fill-opacity="0" stroke="#8a1a35" stroke-width="10" stroke-opacity="1"></use></g></g><g><g><use xlink:href="#b1vaBT3GBR" opacity="1" fill-opacity="0" stroke="#8a1a35" stroke-width="10" stroke-opacity="1"></use></g></g><g><g><use xlink:href="#aMyJ5yRVc" opacity="1" fill-opacity="0" stroke="#8a1a35" stroke-width="10" stroke-opacity="1"></use></g></g><g><g><use xlink:href="#iuQ4asU2X" opacity="1" fill-opacity="0" stroke="#8a1a35" stroke-width="10" stroke-opacity="1"></use></g></g><g><g><use xlink:href="#a5LpsmGaf7" opacity="1" fill-opacity="0" stroke="#8a1a35" stroke-width="10" stroke-opacity="1"></use></g></g><g><g><use xlink:href="#f5wT5PdExH" opacity="1" fill-opacity="0" stroke="#8a1a35" stroke-width="10" stroke-opacity="1"></use></g></g><g><g><use xlink:href="#b11WPRfQ5l" opacity="1" fill-opacity="0" stroke="#8a1a35" stroke-width="10" stroke-opacity="1"></use></g></g><g><g><use xlink:href="#b1N8n7Ql" opacity="1" fill-opacity="0" stroke="#8a1a35" stroke-width="10" stroke-opacity="1"></use></g></g><g><g><use xlink:href="#f15kvLOGn2" opacity="1" fill-opacity="0" stroke="#cb1b45" stroke-width="10" stroke-opacity="1"></use></g></g><g><g><use xlink:href="#c27Jw4iCu" opacity="1" fill-opacity="0" stroke="#8a1a35" stroke-width="1" stroke-opacity="1"></use></g></g><g><g><use xlink:href="#b1is63GHf" opacity="1" fill-opacity="0" stroke="#8a1a35" stroke-width="10" stroke-opacity="1"></use></g></g><g><g><use xlink:href="#a1hcLl1jBk" opacity="1" fill-opacity="0" stroke="#cb1b45" stroke-width="10" stroke-opacity="1"></use></g></g><g><g><use xlink:href="#bZDsbicwt" opacity="1" fill-opacity="0" stroke="#cb1b45" stroke-width="10" stroke-opacity="1"></use></g></g><g><g><use xlink:href="#b5xcSUe60H" opacity="1" fill-opacity="0" stroke="#8a1a35" stroke-width="10" stroke-opacity="1"></use></g></g><g><g><use xlink:href="#a1dRJUm8pa" opacity="1" fill-opacity="0" stroke="#8a1a35" stroke-width="10" stroke-opacity="1"></use></g></g><g><g><use xlink:href="#a716R0BPQ" opacity="1" fill-opacity="0" stroke="#cb1b45" stroke-width="10" stroke-opacity="1"></use></g></g><g><g><use xlink:href="#jwXiiHJd3" opacity="1" fill-opacity="0" stroke="#cb1b45" stroke-width="10" stroke-opacity="1"></use></g></g><g><g><use xlink:href="#e6ty1YIEC" opacity="1" fill-opacity="0" stroke="#cb1b45" stroke-width="10" stroke-opacity="1"></use></g></g><g><g><use xlink:href="#caWWAvXbW" opacity="1" fill-opacity="0" stroke="#8a1a35" stroke-width="1" stroke-opacity="1"></use></g></g><g><g><use xlink:href="#a5TJ3Omv1H" opacity="1" fill-opacity="0" stroke="#8a1a35" stroke-width="10" stroke-opacity="1"></use></g></g><g><g><use xlink:href="#c17M0NwWmA" opacity="1" fill-opacity="0" stroke="#cb1b45" stroke-width="10" stroke-opacity="1"></use></g></g><g><g><filter id="shadow13073809" x="26" y="-9" width="19" height="119" filterUnits="userSpaceOnUse" primitiveUnits="userSpaceOnUse"><feFlood></feFlood><feComposite in2="SourceAlpha" operator="in"></feComposite><feGaussianBlur stdDeviation="1"></feGaussianBlur><feOffset dx="1" dy="1" result="afterOffset"></feOffset><feFlood flood-color="#000000" flood-opacity="0.5"></feFlood><feComposite in2="afterOffset" operator="in"></feComposite><feMorphology operator="dilate" radius="1"></feMorphology><feComposite in2="SourceAlpha" operator="out"></feComposite></filter><path d="M35 100L35 0" id="c3mG8LxKoD" fill="none" stroke="white" filter="url(#shadow13073809)"></path></g><g><use xlink:href="#bWWy1SXiK" opacity="1" fill-opacity="0" stroke="#cb1b45" stroke-width="10" stroke-opacity="1"></use></g></g><g><g><use xlink:href="#b4QnnR1z7" opacity="1" fill-opacity="0" stroke="#cb1b45" stroke-width="10" stroke-opacity="1"></use></g></g><g><g><filter id="shadow13372892" x="31" y="-9" width="20" height="29" filterUnits="userSpaceOnUse" primitiveUnits="userSpaceOnUse"><feFlood></feFlood><feComposite in2="SourceAlpha" operator="in"></feComposite><feGaussianBlur stdDeviation="1"></feGaussianBlur><feOffset dx="1" dy="1" result="afterOffset"></feOffset><feFlood flood-color="#000000" flood-opacity="0.5"></feFlood><feComposite in2="afterOffset" operator="in"></feComposite><feMorphology operator="dilate" radius="1"></feMorphology><feComposite in2="SourceAlpha" operator="out"></feComposite></filter><path d="M40 0L41 0L41 10L40 10L40 0Z" id="a4mStf1IBS" fill="white" fill-opacity="1" filter="url(#shadow13372892)"></path></g><use xlink:href="#bkvmo5L7I" opacity="1" fill="#631227" fill-opacity="1"></use></g><g><use xlink:href="#a2KDVsAs9P" opacity="1" fill="#631227" fill-opacity="1"></use></g><g><use xlink:href="#a2rbrYKtI" opacity="1" fill="#631227" fill-opacity="1"></use></g><g><use xlink:href="#eze4Z4Icg" opacity="1" fill="#631227" fill-opacity="1"></use></g><g><use xlink:href="#a20skVp5Ex" opacity="1" fill="#631227" fill-opacity="1"></use></g><g><use xlink:href="#icc7qnWQf" opacity="1" fill="#631227" fill-opacity="1"></use></g><g><use xlink:href="#jt4Lz7LRY" opacity="1" fill="#631227" fill-opacity="1"></use></g><g><use xlink:href="#b1Z6Z0uuZx" opacity="1" fill="#631227" fill-opacity="1"></use></g><g><use xlink:href="#e493jqYmV2" opacity="1" fill="#631227" fill-opacity="1"></use></g></g></g></svg>