<?xml version="1.0" encoding="UTF-8" standalone="no"?><!-- Generator: Gravit.io --><svg xmlns="http://www.w3.org/2000/svg" xmlns:xlink="http://www.w3.org/1999/xlink" style="isolation:isolate" viewBox="0 0 512 512" width="512pt" height="512pt"><defs><clipPath id="_clipPath_3Cv40VR18z9OSi4ojNz9zMnU6IRCc1Nl"><rect width="512" height="512"/></clipPath></defs><g clip-path="url(#_clipPath_3Cv40VR18z9OSi4ojNz9zMnU6IRCc1Nl)"><g style="isolation:isolate"><rect x="22.528" y="230.4" width="284.672" height="51.2" transform="matrix(1,0,0,1,0,0)" fill="rgb(138,26,53)"/><path d="M 0 460.8 L 512 460.8 L 512 499.2 C 512 506.265 506.265 512 499.2 512 L 12.8 512 C 5.735 512 0 506.265 0 499.2 L 0 460.8 Z" style="stroke:none;fill:#8A1A35;stroke-miterlimit:10;"/><rect x="153.6" y="345.6" width="204.8" height="51.2" transform="matrix(1,0,0,1,0,0)" fill="rgb(138,26,53)"/><rect x="204.8" y="0" width="102.4" height="51.2" transform="matrix(1,0,0,1,0,0)" fill="rgb(138,26,53)"/><rect x="153.6" y="115.2" width="358.4" height="51.2" transform="matrix(1,0,0,1,0,0)" fill="rgb(138,26,53)"/><rect x="307.2" y="0" width="51.2" height="281.6" transform="matrix(1,0,0,1,0,0)" fill="rgb(138,26,53)"/><rect x="76.8" y="0" width="51.2" height="512" transform="matrix(1,0,0,1,0,0)" fill="rgb(138,26,53)"/></g><g style="isolation:isolate"><rect x="307.2" y="230.4" width="51.2" height="281.6" transform="matrix(1,0,0,1,0,0)" fill="rgb(203,27,69)"/><path d="M 470.528 0 L 502.272 0 C 507.641 0 512 4.359 512 9.728 L 512 271.872 C 512 277.241 507.641 281.6 502.272 281.6 L 470.528 281.6 C 465.159 281.6 460.8 277.241 460.8 271.872 L 460.8 9.728 C 460.8 4.359 465.159 0 470.528 0 Z" style="stroke:none;fill:#CB1B45;stroke-miterlimit:10;"/><rect x="307.2" y="345.6" width="204.8" height="51.2" transform="matrix(1,0,0,1,0,0)" fill="rgb(203,27,69)"/><rect x="25.6" y="0" width="179.2" height="51.2" transform="matrix(1,0,0,1,0,0)" fill="rgb(203,27,69)"/><rect x="307.2" y="0" width="170.496" height="51.2" transform="matrix(1,0,0,1,0,0)" fill="rgb(203,27,69)"/><rect x="307.2" y="230.4" width="179.2" height="51.2" transform="matrix(1,0,0,1,0,0)" fill="rgb(203,27,69)"/><path d="M 12.8 230.4 L 51.2 230.4 L 51.2 396.8 L 0 396.8 L 0 243.2 C 0 236.135 5.735 230.4 12.8 230.4 Z" style="stroke:none;fill:#CB1B45;stroke-miterlimit:10;"/><path d="M 12.8 0 L 51.2 0 L 51.2 166.4 L 0 166.4 L 0 12.8 C 0 5.735 5.735 0 12.8 0 Z" style="stroke:none;fill:#CB1B45;stroke-miterlimit:10;"/><rect x="153.6" y="0" width="51.2" height="512" transform="matrix(1,0,0,1,0,0)" fill="rgb(203,27,69)"/></g></g></svg>